<?xml version="1.0" standalone="no"?><!DOCTYPE svg PUBLIC "-//W3C//DTD SVG 1.1//EN" "http://www.w3.org/Graphics/SVG/1.1/DTD/svg11.dtd"><svg t="1563433995603" class="icon" viewBox="0 0 1024 1024" version="1.1" xmlns="http://www.w3.org/2000/svg" p-id="3229" xmlns:xlink="http://www.w3.org/1999/xlink" width="200" height="200"><defs><style type="text/css"></style></defs><path d="M959.221 179.652c0-75.345-61.017-136.207-136.207-136.207l-622.027 0c-75.192 0-136.208 60.863-136.208 136.207l0 622.027c0 75.192 61.017 136.207 136.208 136.207l622.027 0c75.192 0 136.207-61.017 136.207-136.207l0-622.027zM794.509 603.993l0 8.474 3.697 4.93 1.08 8.321-0.31 7.704-1.695 6.933-0.616 2.773-1.387 3.39-1.233 2.312-1.695 2.928-1.541 1.849-2.003 2.312-1.695 2.003-2.003 1.541-2.156 1.079-2.005-2.311-1.695-2.928-2.464 0-1.695 2.928-3.082 0-1.387-0.155-1.543-0.616-1.541-1.233-1.695-1.541-2.772-2.927-3.236-4.314-2.466-4.315-2.464-3.544-2.466-4.006-3.544-7.396-3.852-1.849-0.462 5.547-0.772 0-1.541-4.623-0.923-0.771-1.541 0.924-2.621 6.78-4.005 10.015-5.085 12.327-4.007 6.162-4.005 6.626-4.777 7.242-5.085 7.242-2.621 3.235-3.236 3.545-7.241 7.087 0.616 0.771 1.08 0.924 3.544 2.157 15.253 7.242 6.471 3.852 6.471 3.545 6.163 4.622 5.546 4.623 2.774 2.156 2.003 2.465 2.003 2.774 1.849 3.081 0.925 2.621 1.08 3.081 0.462 2.62-2.466 3.082-3.544 2.157 0 2.003 2.621 2.157 0.308 2.003 0.308 1.541-0.616 1.849-2.621 3.853-2.464 2.927-2.003 2.312-1.541 1.695-4.161 3.082-4.777 2.62-5.085 2.465-5.393 2.465-6.01 2.312-3.236 1.079-2.772 0.771-7.089 1.695-14.482 3.082-8.012 1.232-8.012 2.621-8.474 3.39-26.04 0-9.244-2.928-8.784-1.849-9.398-1.849-9.246-1.387-9.862-1.387-9.554-2.465-9.244-1.849-9.246-2.62-9.554-3.39-9.244-2.928-4.93-1.541-4.315-1.54-2.772 0.77-2.621 1.387-7.859 0-8.936-2.62-4.469-1.387-5.854-1.079-3.699 3.082-5.084 3.081-6.933 3.39-7.55 4.161-4.623 2.156-4.93 1.849-10.632 4.315-5.855 1.54-6.009 1.541-8.63 1.695-5.238 0.463-5.546 0.462-5.856 0.617-6.779 0.309-27.888 0-15.562-0.309-15.254-1.541-7.703-1.079-7.55-1.079-7.242-1.08-7.241-1.54-6.78-2.157-6.626-1.541-6.009-2.465-5.855-2.312-5.238-2.465-4.777-2.927-4.468-3.236-5.393-5.393-1.387-2.003-1.232-2.003-1.079-2.004-1.387-4.314 0-19.569 0.308-2.773 2.158-6.163 1.849-3.698 2.465-3.082 2.773-3.544 2.312-1.849 2.312-1.233 1.849-1.695 3.236-0.924 2.465-1.541 3.236-1.695 3.698-1.079 3.544-1.079 4.16-0.924 4.006-0.617 4.776-0.617 5.086-1.232 1.386-1.387 0.309 0-4.93 1.233 0-0.617 1.849-1.233-1.387-1.232-6.162-6.01-4.16-3.544-5.085-4.622-5.239-5.239-5.546-6.626-6.318-7.396-2.312-4.005-3.236-4.16-2.62-4.93-2.465-5.239-3.39-4.93-2.157-5.701-2.465-5.7-2.464-6.471-2.004-6.01-1.695-9.553-0.617-2.157-1.541 0-0.924 2.157-0.617 1.079-0.616 1.695-0.463 1.85-0.462 1.386-0.924 2.312-3.082 5.547-1.695 3.39-2.62 2.927-2.774 3.545-2.773 4.005-3.39 3.39-3.698 3.39-3.39 3.081-3.697 2.465-4.314 2.774-4.006 1.541-4.623 0.616-4.776-0.153-1.08 0-0.924 0.153-0.924-1.541-1.387-0.771-1.849-4.314-1.079-2.312-1.233-3.39-0.924-3.544-0.617-3.39-0.308-8.012 0.617-4.622 0-15.255-0.617-11.247 0.308-5.855 0.924-6.01 0.925-6.47 1.541-6.01 2.003-6.933 2.003-6.626 2.621-6.933 2.62-6.626 3.544-6.779 3.236-7.242 4.006-6.779 4.776-7.396 4.777-6.626 4.93-7.396 4.16-5.085 5.394-5.855 5.701-6.01 2.62-2.773 3.236-3.236 4.622-4.006 4.777-4.006 7.55-6.933 6.009-4.314 2.004-1.541-1.233-3.544-6.009-4.623-5.855-2.465 0-10.478 6.317-4.16 3.698-4.314 2.773-4.623 2.621-4.93 3.544-5.394 4.622-5.238 0-3.697-0.153-3.545 0.153-4.622 1.541-5.238 1.387-5.701 1.232-2.774 1.233-2.465-2.774-2.62-2.62-2.003 0-13.097 5.547-6.779 3.544-7.704 3.082-9.399 3.236-9.707 2.312-5.393 2.003-5.855 2.312-5.394 2.62-5.855 2.773-6.317 3.082-6.01 3.39-6.47 4.469-6.318 2.003-3.544 2.157-3.082 4.622-6.779 4.777-6.626 5.393-6.934 6.01-6.779 6.162-6.626 6.779-6.779 7.859-7.396 5.085-4.468 6.162-4.777 6.318-4.314 6.933-4.006 6.471-3.697 7.396-2.928 7.703-3.697 7.859-2.621 7.703-2.62 8.475-2.62 8.321-2.003 8.782-1.695 8.937-1.387 8.783-1.233 8.783-1.079 9.398-0.617 27.735 0 9.246 1.233 9.244 1.079 9.554 0.924 8.782 2.157 9.246 2.003 8.782 2.157 9.554 2.62 8.629 3.082 8.474 3.544 8.784 3.698 8.166 4.16 7.857 4.468 7.859 5.085 6.779 4.623 3.082 2.62 3.236 1.849 6.163 5.394 5.238 5.085 5.238 5.238 5.085 5.855 4.161 5.547 4.93 5.855 3.544 6.317 3.544 5.547 3.697 6.471 3.082 5.547 5.238 11.864 2.621 6.162 2.003 5.855 1.849 6.163 1.849 5.855 1.233 4.93 1.695 5.855 2.928 10.632 1.695 9.091 1.231 8.937 1.08 7.087 1.541 10.939 0.308 1.695 1.387 2.004 3.39 5.701 2.311 3.852 1.851 4.006 2.464 4.16 2.311 5.085 1.387 5.394 1.541 5.701 1.233 5.855-1.387 2.927-1.541 3.545 0 10.016 0.772 3.697-0.772 7.242 0 8.627-0.462 1.387 1.233 2.927 8.012 12.173 6.161 8.937 3.082 6.162 4.161 6.626 3.544 7.242 4.159 7.858 4.161 8.783 4.777 9.862 2.619 6.009 2.466 6.009 2.156 6.318 2.003 5.547 1.541 5.855 1.695 5.546 2.003 10.94-2.926 10.939-3.236 9.862 0 5.398-0.002 0zM794.509 603.993z" p-id="3230" fill="#bfbfbf"></path></svg>