<?xml version="1.0" standalone="no"?><!DOCTYPE svg PUBLIC "-//W3C//DTD SVG 1.1//EN" "http://www.w3.org/Graphics/SVG/1.1/DTD/svg11.dtd"><svg t="1563434090458" class="icon" viewBox="0 0 1024 1024" version="1.1" xmlns="http://www.w3.org/2000/svg" p-id="4016" xmlns:xlink="http://www.w3.org/1999/xlink" width="200" height="200"><defs><style type="text/css"></style></defs><path d="M1024 853.312C1024 947.648 947.648 1024 853.312 1024L170.688 1024C76.416 1024 0 947.648 0 853.312L0 170.688C0 76.416 76.416 0 170.688 0l682.688 0C947.648 0 1024 76.416 1024 170.688L1024 853.312zM680.128 504.896c-27.2-5.12-14.016-19.264-14.016-19.264s26.624-42.304-5.248-73.088C621.376 374.528 525.44 417.472 525.44 417.472 488.832 428.416 498.56 412.416 503.68 385.216c0-32-11.328-86.272-108.992-54.208C297.216 363.2 213.44 476.032 213.44 476.032 155.264 550.976 162.944 609.024 162.944 609.024c14.592 128 155.456 163.136 264.96 171.52 115.264 8.704 270.848-38.4 317.952-135.04C793.152 548.48 707.392 510.144 680.128 504.896L680.128 504.896zM436.416 744.32c-114.432 5.184-206.912-50.176-206.912-123.968 0-73.792 92.48-132.928 206.912-138.048 114.496-5.056 207.232 40.448 207.232 114.048C643.648 670.144 550.848 739.328 436.416 744.32L436.416 744.32zM413.632 530.944c-115.072 13.056-101.76 117.056-101.76 117.056s-1.216 33.024 30.848 49.728c67.328 35.2 136.64 13.888 171.776-29.76C549.44 624.256 528.896 518.016 413.632 530.944L413.632 530.944zM384.576 676.992c-21.44 2.432-38.784-9.472-38.784-26.88 0-17.28 15.424-35.392 36.928-37.632 24.704-2.176 40.768 11.52 40.768 28.864C423.424 658.688 406.016 674.624 384.576 676.992L384.576 676.992zM452.416 621.248C445.184 626.496 436.224 625.728 432.32 619.52 428.352 613.312 429.824 603.52 437.248 598.272c8.512-6.08 17.344-4.352 21.248 1.792C462.336 606.4 459.584 615.872 452.416 621.248L452.416 621.248zM736.128 459.84c9.344 0 17.28-6.656 18.496-15.232 0.192-0.704 0.256-1.28 0.256-1.92 14.144-121.984-103.552-100.992-103.552-100.992-10.432 0-18.816 8.128-18.816 18.304 0 9.984 8.384 18.176 18.816 18.176 84.48-18.048 65.792 63.488 65.792 63.488C717.12 451.776 725.696 459.84 736.128 459.84L736.128 459.84zM722.432 246.912c-40.704-9.216-82.496-1.28-94.208 0.896-1.024 0-1.728 0.896-2.624 1.088C625.28 248.96 625.024 249.344 625.024 249.344c-11.584 3.136-20.032 13.44-20.032 25.664 0 14.592 12.096 26.496 27.456 26.496 0 0 14.784-1.92 24.832-5.696 9.984-3.84 94.272-2.816 136 64.96 22.848 49.472 10.048 82.624 8.512 87.936 0 0-5.376 12.864-5.376 25.536 0 14.656 12.096 23.808 27.328 23.808 12.544 0 23.168-1.664 26.368-22.336l0.192 0C894.976 331.2 795.2 263.296 722.432 246.912L722.432 246.912z" p-id="4017" fill="#bfbfbf"></path></svg>