<?xml version="1.0" standalone="no"?><!DOCTYPE svg PUBLIC "-//W3C//DTD SVG 1.1//EN" "http://www.w3.org/Graphics/SVG/1.1/DTD/svg11.dtd"><svg t="1562836291478" class="icon" viewBox="0 0 1024 1024" version="1.1" xmlns="http://www.w3.org/2000/svg" p-id="15373" xmlns:xlink="http://www.w3.org/1999/xlink" width="200" height="200"><defs><style type="text/css"></style></defs><path d="M268 151.7c7 0 13.2 4.1 14.8 7.8l64.3 146c1.9 4.3-0.6 12-6.6 15.2l-93.2 49-0.7 0.3-0.6 0.4c-11.6 6.8-26.4 21.1-30.4 50.8-2.1 15.5-1.1 34.3 2.9 55.6 6.9 36.5 22.8 80.3 42.6 117.1 11.2 20.8 31.9 53 56.5 80.6 32.8 36.9 62.4 54.8 90.5 54.8 10.7 0 20.7-2.6 29.8-7.7l88.8-46.4c2.1-1.1 4.7-1.7 7.5-1.7 5.5 0 11 2.3 13.5 5.7l95.6 130.2c3.2 4.4 2 12-2.4 15.7L523 922.4l-0.8 0.6c-1.9 0.6-6.2 1.5-12.6 1.5-12.6 0-23-3.4-27.7-6.8l-0.9-0.7-1.1-0.6c-1-0.6-38.2-24.1-89.4-73.2-30.3-29.1-59.5-61.3-86.9-95.9-34.1-43.1-65.4-90-93-139.3-27.5-49.1-50.5-99.4-68.5-149.6-14.4-40.1-25.6-80.2-33.2-119.1C96.1 274 97.5 233.7 97.5 232l0.2-2.7-0.4-3c-0.7-5.5 0.8-13.1 3.8-19.4 3.2-6.8 6.6-9.5 7.5-9.9l155.1-44.7c1.3-0.4 2.8-0.6 4.3-0.6m0-33.6c-4.6 0-9.1 0.6-13.6 1.9L99.2 164.7C75.9 171.5 60.9 205 64 230.3c0 0-8.5 169 117.4 394.1 125.9 225.2 281 320.6 281 320.6 12.5 9 30.9 13.1 47.3 13.1 15.3 0 28.9-3.5 34.8-9.8l117.8-97.2c18.3-15.1 21.9-42.7 8.1-61.5l-95.6-130.2C565.7 647 550 640 534.2 640c-8 0-15.9 1.8-23.1 5.5l-89.3 46.6c-4.3 2.5-8.9 3.6-13.7 3.6-39.8 0-95.5-76.9-117.4-117.7-35.9-66.7-59.3-160.3-27.8-178.7l93.2-49c21.2-11.2 31-37.5 21.7-58.5l-64.2-146c-7.6-16.8-26.4-27.7-45.6-27.7z" p-id="15374" fill="#e0620d"></path><path d="M489.8 524.5h64.4c17.7 0.9 27.1 8.3 28 22.2-0.9 14.8-9.3 22.2-25.2 22.2H436.6c-17.7 0-26.6-7.4-26.6-22.2-0.9-4.3 1.4-10 7-17 7.4-7.9 14.9-15.7 22.4-23.5 30.8-30.5 53.2-55.8 67.2-75.8 8.4-10.5 12.6-20.9 12.6-31.4-1.9-15.7-10.3-24.4-25.2-26.1-14.9 0-25.6 10-32.2 30-5.6 16.5-13.5 24.4-23.8 23.5-17.7 0-26.6-7.8-26.6-23.5 4.6-44.4 32.6-69.6 84-75.8 50.4 3.5 77 26.5 79.8 69.2 0 24.4-21 58.8-63 103.2-11.2 12.4-18.7 20.7-22.4 25zM772.6 472.3H767V369c-0.9-26.1-14.9-40-42-41.8-17.8 0-29.9 6.5-36.4 19.6l-79.8 134.6c-4.7 5.2-6.5 10.4-5.5 15.7 0.9 13.1 9.3 19.6 25.2 19.6h86.8v28.7c-1 15.7 7.5 23.5 25.2 23.5s26.6-7.8 26.6-23.5v-28.7h5.6c14.9-0.9 23.3-8.3 25.2-22.2-1.9-13.1-10.4-20.5-25.3-22.2z m-57.4 0h-49l47.6-92.7h1.4v92.7z" p-id="15375" fill="#e0620d"></path><path d="M414.7 160.9c46.6-23.9 100.1-37.4 157-37.3 179 0.5 323.3 136.3 322.3 303.3-0.6 116.3-71.6 217.1-175 267.4 0 0-27.2 19.5-12.6 40.8 15.5 26 42.8 12.2 42.8 12.2 123.7-60.4 208.4-181 209.2-320.2 1.2-200.2-171.8-363-386.3-363.6-67.9-0.2-131.9 15.9-187.6 44.4 0 0-30.9 16.8-13.6 42.1 17.4 25.2 43.8 10.9 43.8 10.9z" p-id="15376" fill="#e0620d"></path></svg>