<?xml version="1.0" standalone="no"?><!DOCTYPE svg PUBLIC "-//W3C//DTD SVG 1.1//EN" "http://www.w3.org/Graphics/SVG/1.1/DTD/svg11.dtd"><svg t="1562836240411" class="icon" viewBox="0 0 1168 1024" version="1.1" xmlns="http://www.w3.org/2000/svg" p-id="14571" xmlns:xlink="http://www.w3.org/1999/xlink" width="228.125" height="200"><defs><style type="text/css"></style></defs><path d="M495.011385 1024l-11.77724-5.454722C269.756179 919.988378 218.804121 841.142857 153.595404 684.939467c-26.157869-62.605327-39.794673-174.923002-46.613075-258.231477-8.182082-99.79661-9.545763-195.502179-6.818402-238.520097 2.107506-32.108475 29.876998-56.778692 61.985472-55.043099 216.825182 11.653269 294.678935-110.33414 295.422761-111.57385l0.619854-0.991767c8.677966-12.892978 23.182567-20.579177 38.926877-20.579177 15.248426 0.123971 29.257143 7.438257 37.935109 19.835351 3.099274 3.96707 30.372881 37.563196 77.48184 67.564165C678.116469 129.177724 749.647704 144.550121 825.26998 133.392736c15.124455-2.231477 30.124939 1.983535 42.274092 11.77724 13.016949 10.53753 21.199031 26.157869 22.31477 43.017917 2.851332 43.017918 1.36368 138.723487-6.818402 238.520097-6.818402 83.184504-20.455206 195.62615-46.613075 258.231477-65.208717 156.327361-116.160775 235.04891-329.638741 333.605811l-11.777239 5.454722z m-335.961259-834.820339c-1.487651 0-2.727361 1.239709-2.851332 2.727361-5.826634 88.01937 7.438257 371.54092 49.092494 471.33753C237.399762 740.106538 262.441893 790.190799 303.352305 834.572397c41.406295 45.125424 100.788378 84.672155 191.65908 127.442131 90.746731-42.893947 150.128814-82.440678 191.65908-127.442131 40.910412-44.381598 65.952542-94.46586 98.061017-171.327845 41.654237-99.79661 54.919128-383.31816 49.092494-471.33753-0.123971-1.239709-0.743826-2.355448-1.363681-2.851332-88.515254 12.892978-175.666828-6.322518-252.156901-55.538983-42.398063-27.273608-70.539467-56.778692-83.060532-71.159322-11.281356 14.38063-34.463923 40.166586-72.399032 64.712833C392.983298 147.649395 356.907753 163.517676 317.732934 174.179177c-48.348668 13.016949-101.656174 18.099758-158.558837 15.124455 0-0.123971 0-0.123971-0.123971-0.123971z" p-id="14572" fill="#e0620d"></path><path d="M307.071433 502.950121l132.772881 121.615496h0.743826c5.082809 10.165617 16.736077 15.992252 28.761259 15.992252s23.802421-7.810169 30.992736-16.116223h0.371913l208.891041-219.428571c6.942373-7.686199 9.917676-14.752542 9.917676-24.794189 0-14.876513-10.413559-28.88523-25.166102-28.88523-11.033414 0-18.595642 1.983535-30.124939 10.785472L470.961022 568.40678h-0.371913c-0.619855 0-1.36368 0-1.983535 0.123971l-113.309444-103.763681c-4.462954-8.553995-17.10799-12.397094-27.521549-12.397094-14.876513 0-26.901695 12.025182-26.901695 27.025666 0 10.041646 2.727361 20.827119 6.198547 23.554479l6.446489 5.826634-6.446489-5.826634z" p-id="14573" fill="#e0620d"></path></svg>