<?xml version="1.0" standalone="no"?><!DOCTYPE svg PUBLIC "-//W3C//DTD SVG 1.1//EN" "http://www.w3.org/Graphics/SVG/1.1/DTD/svg11.dtd"><svg t="1562836100109" class="icon" viewBox="0 0 1024 1024" version="1.1" xmlns="http://www.w3.org/2000/svg" p-id="13758" xmlns:xlink="http://www.w3.org/1999/xlink" width="200" height="200"><defs><style type="text/css"></style></defs><path d="M1014.634854 478.208L834.922854 311.808V85.504c0-14.848-9.728-24.576-24.064-24.576h-139.264c-14.336 0-20.992 6.656-20.992 21.504v64.512L522.602854 30.208c-4.608-5.12-9.728-5.12-14.336-5.12-4.608 0-14.336 5.12-14.336 5.12L4.970854 484.352c-4.608 5.12-5.632 9.728-4.608 14.848 1.536 12.8 9.728 16.896 19.968 18.432 7.168 1.024 17.408-5.12 17.408-5.12l108.032-97.28V967.68c0 14.848 9.728 24.576 24.064 24.576h694.272c14.336 0 24.064-9.728 24.064-24.576V425.472l95.744 89.6c4.608 5.12 9.728 5.12 14.336 5.12 14.336 0 26.112-11.776 26.112-26.624 0-3.072-4.096-10.752-9.728-15.36z m-325.12-377.344l108.544 3.072v177.152l-108.544-102.4V100.864z m-87.04 844.288H416.618854v-346.624h185.856v346.624z m235.008-49.664v49.664h-189.44v-365.056c0-14.848-9.728-24.576-24.064-24.576H393.066854c-14.336 0-24.064 9.728-24.064 24.576v365.056H191.850854v-568.32l316.416-295.936 328.704 303.616v510.976z m-305.152-52.224c14.336 0 24.064-9.728 24.064-24.576s-9.728-24.576-24.064-24.576c-14.336 0-24.064 14.848-24.064 24.576 0 14.848 9.728 24.576 24.064 24.576z" fill="#e0620d" p-id="13759"></path></svg>