<?xml version="1.0" standalone="no"?><!DOCTYPE svg PUBLIC "-//W3C//DTD SVG 1.1//EN" "http://www.w3.org/Graphics/SVG/1.1/DTD/svg11.dtd"><svg t="1562981265530" class="icon" viewBox="0 0 1024 1024" version="1.1" xmlns="http://www.w3.org/2000/svg" p-id="2383" xmlns:xlink="http://www.w3.org/1999/xlink" width="200" height="200"><defs><style type="text/css"></style></defs><path d="M26.04 830.618c-13.07 0-23.7-10.636-23.7-23.706V150.119c0-9.914 6.25-18.86 15.554-22.263 17.903-6.55 113.952-39.221 246.816-39.221 85.04 0 168.751 13.165 248.808 39.128a23.647 23.647 0 0 1 16.39 22.558V801.87c0 13.075-10.626 23.712-23.688 23.713-1.754 0-3.514-0.196-5.23-0.583-29.358-6.623-134.342-28.231-252.548-28.231-83.833 0-155.895 10.894-214.184 32.38a23.72 23.72 0 0 1-8.219 1.469z m12.115-671.903V789.9c59.11-19.214 129.748-28.947 210.285-28.947 106.759 0 203.04 17.085 245.652 25.918V159.17c-73.942-23.043-151.062-34.718-229.383-34.718-113.2 0-197.684 24.583-226.554 34.264z" p-id="2384"></path><path d="M519.085 830.618c-13.068 0-23.7-10.636-23.7-23.706V150.119c0-9.915 6.252-18.863 15.557-22.263 17.902-6.548 113.95-39.221 246.813-39.221 85.041 0 168.75 13.165 248.808 39.128a23.647 23.647 0 0 1 16.392 22.558V801.87c0 13.075-10.627 23.712-23.688 23.713-1.754 0-3.514-0.196-5.23-0.584-29.36-6.622-134.344-28.23-252.55-28.23-83.834 0-155.896 10.894-214.184 32.38a23.684 23.684 0 0 1-8.218 1.469z m12.116-671.903V789.9c59.113-19.215 129.748-28.947 210.286-28.947 106.757 0 203.038 17.085 245.652 25.918V159.17c-73.944-23.043-151.062-34.719-229.383-34.719-113.201 0-197.685 24.584-226.555 34.265zM115.553 300.157l-0.01-0.034c-2.607-9.897 3.591-19.956 13.603-22.085 18.149-3.858 48.492-9.46 85.294-12.96 71.81-6.828 134.898-2.804 187.886 11.956 9.946 2.77 15.548 13.291 12.214 23.062-3.052 8.948-12.547 14.028-21.656 11.497-97.597-27.13-213.787-7.429-256.3 1.525-9.347 1.968-18.598-3.723-21.031-12.96zM115.553 446.277l-0.01-0.034c-2.607-9.897 3.591-19.956 13.603-22.085 18.149-3.859 48.492-9.46 85.294-12.96 71.81-6.828 134.898-2.804 187.886 11.955 9.946 2.77 15.548 13.292 12.214 23.063-3.052 8.948-12.547 14.028-21.656 11.497-97.597-27.13-213.787-7.429-256.3 1.525-9.347 1.97-18.598-3.723-21.031-12.96zM115.553 581.346l-0.01-0.033c-2.607-9.898 3.591-19.957 13.603-22.085 18.149-3.86 48.492-9.46 85.294-12.96 71.81-6.83 134.898-2.804 187.886 11.955 9.946 2.77 15.548 13.291 12.214 23.062-3.052 8.948-12.547 14.028-21.656 11.497-97.597-27.129-213.787-7.428-256.3 1.526-9.347 1.968-18.598-3.724-21.031-12.962z" p-id="2385"></path><path d="M609.497 300.157l-0.01-0.034c-2.607-9.897 3.591-19.956 13.603-22.085 18.148-3.858 48.492-9.46 85.295-12.96 71.81-6.828 134.898-2.804 187.886 11.956 9.945 2.77 15.548 13.291 12.214 23.062-3.052 8.948-12.548 14.028-21.656 11.497-97.597-27.13-213.787-7.429-256.3 1.525-9.348 1.968-18.6-3.723-21.032-12.96zM609.497 446.277l-0.01-0.034c-2.607-9.897 3.591-19.956 13.603-22.085 18.148-3.859 48.492-9.46 85.295-12.96 71.81-6.828 134.898-2.804 187.886 11.955 9.945 2.77 15.548 13.292 12.214 23.063-3.052 8.948-12.548 14.028-21.656 11.497-97.597-27.13-213.787-7.429-256.3 1.525-9.348 1.97-18.6-3.723-21.032-12.96zM609.497 581.346l-0.01-0.033c-2.607-9.898 3.591-19.957 13.603-22.085 18.148-3.86 48.492-9.46 85.295-12.96 71.81-6.83 134.898-2.804 187.886 11.955 9.945 2.77 15.548 13.291 12.214 23.062-3.052 8.948-12.548 14.028-21.656 11.497-97.597-27.129-213.787-7.428-256.3 1.526-9.348 1.968-18.6-3.724-21.032-12.962z" p-id="2386"></path></svg>