<?xml version="1.0" standalone="no"?><!DOCTYPE svg PUBLIC "-//W3C//DTD SVG 1.1//EN" "http://www.w3.org/Graphics/SVG/1.1/DTD/svg11.dtd"><svg t="1562935019360" class="icon" viewBox="0 0 1024 1024" version="1.1" xmlns="http://www.w3.org/2000/svg" p-id="891" xmlns:xlink="http://www.w3.org/1999/xlink" width="200" height="200"><defs><style type="text/css"></style></defs><path d="M875.054545 223.418182l-232.727272-169.890909C605.090909 23.272727 558.545455 9.309091 512 9.309091c-46.545455 0-93.090909 13.963636-130.327273 41.890909l-232.727272 169.890909c-55.854545 41.890909-90.763636 107.054545-90.763637 179.2V791.272727c0 121.018182 100.072727 221.090909 221.090909 221.090909h465.454546c121.018182 0 221.090909-100.072727 221.090909-221.090909V400.290909c0-69.818182-32.581818-137.309091-90.763637-176.872727z m-232.727272 719.127273H381.672727c2.327273-4.654545 2.327273-6.981818 2.327273-11.636364V570.181818l69.818182 34.909091c37.236364 18.618182 81.454545 18.618182 116.363636 0l69.818182-34.909091V930.909091c0 4.654545 0 6.981818 2.327273 11.636364zM896 791.272727c0 83.781818-67.490909 151.272727-151.272727 151.272728h-37.236364c2.327273-4.654545 2.327273-6.981818 2.327273-11.636364V512c0-11.636364-6.981818-23.272727-16.290909-30.254545-9.309091-6.981818-23.272727-6.981818-34.909091-2.327273l-121.018182 62.836363c-16.290909 9.309091-37.236364 9.309091-53.527273 0l-121.018182-62.836363c-11.636364-4.654545-23.272727-4.654545-34.90909 2.327273-9.309091 6.981818-16.290909 18.618182-16.29091 30.254545v418.909091c0 4.654545 0 6.981818 2.327273 11.636364H279.272727c-83.781818 0-151.272727-67.490909-151.272727-151.272728V400.290909c0-48.872727 23.272727-93.090909 62.836364-121.018182l232.727272-169.890909c25.6-18.618182 58.181818-30.254545 88.436364-30.254545s62.836364 9.309091 88.436364 30.254545l232.727272 169.890909c39.563636 27.927273 62.836364 74.472727 62.836364 121.018182V791.272727z" fill="#333333" p-id="892"></path></svg>