<?xml version="1.0" standalone="no"?><!DOCTYPE svg PUBLIC "-//W3C//DTD SVG 1.1//EN" "http://www.w3.org/Graphics/SVG/1.1/DTD/svg11.dtd"><svg t="1563346712421" class="icon" viewBox="0 0 1027 1024" version="1.1" xmlns="http://www.w3.org/2000/svg" p-id="2068" xmlns:xlink="http://www.w3.org/1999/xlink" width="200.5859375" height="200"><defs><style type="text/css"></style></defs><path d="M950.613333 182.613333C902.826667 134.826667 836.266667 110.933333 750.933333 110.933333c-23.893333 0-47.786667 3.413333-71.68 11.946667-23.893333 8.533333-47.786667 18.773333-68.266666 32.426667-20.48 13.653333-39.253333 27.306667-54.613334 39.253333-15.36 11.946667-29.013333 25.6-42.666666 39.253333-13.653333-13.653333-29.013333-27.306667-42.666667-39.253333-15.36-11.946667-34.133333-25.6-54.613333-39.253333-20.48-13.653333-44.373333-25.6-68.266667-32.426667-23.893333-8.533333-49.493333-11.946667-71.68-11.946667-85.333333 0-151.893333 23.893333-201.386667 69.973334-51.2 47.786667-75.093333 114.346667-75.093333 197.973333 0 25.6 5.12 51.2 13.653333 78.506667 8.533333 27.306667 18.773333 49.493333 30.72 69.973333C56.32 546.133333 68.266667 563.2 83.626667 581.973333c13.653333 18.773333 25.6 30.72 32.426666 37.546667l15.36 15.36 356.693334 344.746667c6.826667 6.826667 15.36 10.24 25.6 10.24s18.773333-3.413333 25.6-10.24l356.693333-343.04c87.04-87.04 131.413333-172.373333 131.413333-257.706667-3.413333-83.626667-27.306667-150.186667-76.8-196.266667z m-107.52 399.36L512 901.12 179.2 580.266667c-71.68-71.68-107.52-138.24-107.52-203.093334 0-30.72 3.413333-58.026667 11.946667-81.92 8.533333-23.893333 18.773333-42.666667 30.72-56.32 11.946667-13.653333 29.013333-25.6 46.08-34.133333 18.773333-8.533333 35.84-15.36 52.906666-17.066667 17.066667-3.413333 35.84-5.12 56.32-5.12 20.48 0 40.96 5.12 64.853334 15.36 22.186667 10.24 44.373333 22.186667 63.146666 37.546667 18.773333 15.36 35.84 29.013333 49.493334 40.96 13.653333 11.946667 25.6 23.893333 34.133333 35.84 6.826667 8.533333 17.066667 11.946667 27.306667 11.946667 11.946667 0 20.48-3.413333 27.306666-11.946667 8.533333-10.24 20.48-22.186667 34.133334-35.84 13.653333-11.946667 30.72-25.6 49.493333-40.96 18.773333-15.36 40.96-27.306667 63.146667-37.546667 22.186667-10.24 44.373333-15.36 64.853333-15.36 20.48 0 37.546667 1.706667 56.32 5.12 17.066667 3.413333 35.84 8.533333 52.906667 17.066667 18.773333 8.533333 34.133333 20.48 46.08 34.133333 11.946667 13.653333 23.893333 32.426667 30.72 56.32 8.533333 23.893333 11.946667 51.2 11.946666 81.92 5.12 64.853333-30.72 133.12-102.4 204.8z" p-id="2069" fill="#ffffff"></path></svg>